<svg width="512" height="512" viewBox="0 0 512 512" xmlns="http://www.w3.org/2000/svg">
<defs><radialGradient id="bg" cx="50%" cy="40%" r="80%"><stop offset="0%" stop-color="#fefce8"/><stop offset="100%" stop-color="#fef3c7"/></radialGradient><radialGradient id="glow" cx="50%" cy="50%" r="50%"><stop offset="0%" stop-color="#a16207" stop-opacity="0.5"/><stop offset="100%" stop-color="#a16207" stop-opacity="0"/></radialGradient></defs><rect width="512" height="512" rx="72" fill="url(#bg)"/><ellipse cx="256" cy="452" rx="150" ry="18" fill="#000" opacity="0.07"/><path d="M120 250 C120 360 392 360 392 250 Z" fill="#f8fafc" stroke="#cbd5e1" stroke-width="4"/><ellipse cx="256" cy="252" rx="136" ry="34" fill="#ffffff" stroke="#cbd5e1" stroke-width="3"/><ellipse cx="256" cy="252" rx="122" ry="28" fill="#f1f5f9"/><ellipse cx="256" cy="250" rx="80" ry="12" fill="#ffffff" opacity="0.18"/><g fill="none" stroke="#94a3b8" stroke-width="5" stroke-linecap="round" opacity="0.5">M236 214 C230 196 244 186 238 168<path d="M256 186 C248 180 264 166 256 146 C250 132 260 122 258 110" transform="translate(0 0)"/><path d="M276 194 C270 196 284 186 278 168"/></g>
<text x="256" y="494" text-anchor="middle" font-family="Microsoft YaHei UI, sans-serif" font-size="28" font-weight="600" fill="#a16207" opacity="0.82">白粥</text></svg>