<svg width="512" height="512" viewBox="0 0 512 512" xmlns="http://www.w3.org/2000/svg">
<defs><radialGradient id="bg" cx="50%" cy="40%" r="80%"><stop offset="0%" stop-color="#faf5ff"/><stop offset="100%" stop-color="#f3e8ff"/></radialGradient><radialGradient id="glow" cx="50%" cy="50%" r="50%"><stop offset="0%" stop-color="#7c3aed" stop-opacity="0.5"/><stop offset="100%" stop-color="#7c3aed" stop-opacity="0"/></radialGradient></defs><rect width="512" height="512" rx="72" fill="url(#bg)"/><circle cx="256" cy="262" r="214" fill="url(#glow)"/><circle cx="256" cy="266" r="186" fill="none" stroke="#7c3aed" stroke-width="5" stroke-dasharray="3 16" stroke-linecap="round" opacity="0.9"/><g fill="#7c3aed"><circle cx="442" cy="266" r="7"/><circle cx="388" cy="398" r="7"/><circle cx="256" cy="452" r="7"/><circle cx="124" cy="398" r="7"/><circle cx="70" cy="266" r="7"/><circle cx="124" cy="134" r="7"/><circle cx="256" cy="80" r="7"/><circle cx="388" cy="134" r="7"/></g><ellipse cx="256" cy="452" rx="150" ry="18" fill="#000" opacity="0.07"/><path d="M150 320 L176 352 L336 352 L362 320 Z" fill="#e2e8f0"/><ellipse cx="256" cy="316" rx="126" ry="30" fill="#e9d5ff" stroke="#fbbf24" stroke-width="4"/><ellipse cx="256" cy="300" rx="60" ry="34" fill="#8b5cf6"/><circle cx="200" cy="308" r="6" fill="#fde68a" opacity="0.95"/><circle cx="312" cy="308" r="6" fill="#fde68a" opacity="0.95"/><circle cx="256" cy="286" r="6" fill="#fde68a" opacity="0.95"/><circle cx="224" cy="300" r="6" fill="#fde68a" opacity="0.95"/><circle cx="292" cy="300" r="6" fill="#fde68a" opacity="0.95"/><g fill="#fef3c7" opacity="0.9"><circle cx="188" cy="250" r="4"/><circle cx="330" cy="244" r="5"/><circle cx="256" cy="230" r="3.5"/></g><g fill="none" stroke="#94a3b8" stroke-width="5" stroke-linecap="round" opacity="0.5"><path d="M222 210 C214 190 230 176 222 156 C216 142 226 132 224 120"/><path d="M256 200 C248 180 264 166 256 146 C250 132 260 122 258 110"/><path d="M290 210 C282 190 298 176 290 156 C284 142 294 132 292 120"/></g>
<text x="256" y="494" text-anchor="middle" font-family="Microsoft YaHei UI, sans-serif" font-size="28" font-weight="600" fill="#7c3aed" opacity="0.82">梦蝶仙馔</text></svg>