<svg width="512" height="512" viewBox="0 0 512 512" xmlns="http://www.w3.org/2000/svg">
<defs><radialGradient id="bg" cx="50%" cy="40%" r="80%"><stop offset="0%" stop-color="#ecfeff"/><stop offset="100%" stop-color="#cffafe"/></radialGradient><radialGradient id="glow" cx="50%" cy="50%" r="50%"><stop offset="0%" stop-color="#0e7490" stop-opacity="0.5"/><stop offset="100%" stop-color="#0e7490" stop-opacity="0"/></radialGradient></defs><rect width="512" height="512" rx="72" fill="url(#bg)"/><circle cx="256" cy="266" r="180" fill="none" stroke="#0e7490" stroke-width="6" stroke-dasharray="2 22" stroke-linecap="round" opacity="0.8"/><ellipse cx="256" cy="452" rx="150" ry="18" fill="#000" opacity="0.07"/><ellipse cx="256" cy="316" rx="154" ry="100" fill="#ffffff" stroke="#cbd5e1" stroke-width="4"/><ellipse cx="256" cy="320" rx="122" ry="76" fill="#f8fafc"/><g transform="translate(256 300)"><path d="M-84 0 C-60 -46 60 -46 84 0 C60 40 -60 40 -84 0 Z" fill="#fb923c" stroke="#ea580c" stroke-width="5"/><path d="M-60 -14 L-54 16" stroke="#3f2d1e" stroke-width="6" stroke-linecap="round" opacity="0.7"/><path d="M-36 -14 L-30 16" stroke="#3f2d1e" stroke-width="6" stroke-linecap="round" opacity="0.7"/><path d="M-12 -14 L-6 16" stroke="#3f2d1e" stroke-width="6" stroke-linecap="round" opacity="0.7"/><path d="M12 -14 L18 16" stroke="#3f2d1e" stroke-width="6" stroke-linecap="round" opacity="0.7"/><path d="M36 -14 L42 16" stroke="#3f2d1e" stroke-width="6" stroke-linecap="round" opacity="0.7"/><path d="M60 -14 L66 16" stroke="#3f2d1e" stroke-width="6" stroke-linecap="round" opacity="0.7"/></g><g fill="#f97316" opacity="0.85"><path d="M220 232 C214 214 228 208 222 190 C236 202 232 216 240 230 Z"/><path d="M284 232 C290 214 276 208 282 190 C268 202 272 216 264 230 Z"/></g>
<text x="256" y="494" text-anchor="middle" font-family="Microsoft YaHei UI, sans-serif" font-size="28" font-weight="600" fill="#0e7490" opacity="0.82">炙火绒瓜</text></svg>