<svg width="512" height="512" viewBox="0 0 512 512" xmlns="http://www.w3.org/2000/svg">
<defs><radialGradient id="bg" cx="50%" cy="42%" r="78%"><stop offset="0%" stop-color="#eff6ff"/><stop offset="100%" stop-color="#dbeafe"/></radialGradient><linearGradient id="pl" x1="0" y1="1" x2="0" y2="0"><stop offset="0%" stop-color="#1d4ed8"/><stop offset="60%" stop-color="#3b82f6"/><stop offset="100%" stop-color="#93c5fd"/></linearGradient><linearGradient id="pd" x1="0" y1="1" x2="0" y2="0"><stop offset="0%" stop-color="#1d4ed8"/><stop offset="100%" stop-color="#3b82f6"/></linearGradient><radialGradient id="glow" cx="50%" cy="50%" r="50%"><stop offset="0%" stop-color="#93c5fd" stop-opacity="0.55"/><stop offset="100%" stop-color="#93c5fd" stop-opacity="0"/></radialGradient></defs><rect width="512" height="512" rx="72" fill="url(#bg)"/><circle cx="256" cy="262" r="176" fill="none" stroke="#93c5fd" stroke-width="6" stroke-dasharray="2 22" stroke-linecap="round" opacity="0.85"/><ellipse cx="256" cy="440" rx="150" ry="20" fill="#000" opacity="0.06"/><g transform="translate(196,440) rotate(-22)"><path d="M0 0 C -30 -105.0 -15.0 -210 0 -210 C 15.0 -210 30 -105.0 0 0 Z" fill="url(#pl)"/></g><g transform="translate(316,440) rotate(24)"><path d="M0 0 C -30 -100.0 -15.0 -200 0 -200 C 15.0 -200 30 -100.0 0 0 Z" fill="url(#pl)"/></g><g transform="translate(256,440) rotate(2)"><path d="M0 0 C -26 -123.0 -13.0 -246 0 -246 C 13.0 -246 26 -123.0 0 0 Z" fill="url(#pl)"/></g><polygon points="256,188 300,250 256,312 211,250" fill="#bae6fd" fill-opacity="0.85" stroke="#e0f2fe" stroke-width="3"/><g stroke="#7dd3fc" stroke-width="2.5" opacity="0.9" fill="none"><path d="M256 188 L256 312"/><path d="M212 250 L300 250"/><path d="M256 188 L238 232 L274 232"/></g><path d="M242 220 L254 204 L268 224" stroke="#ffffff" stroke-width="4" fill="none" opacity="0.8"/>
<text x="256" y="492" text-anchor="middle" font-family="Microsoft YaHei UI, sans-serif" font-size="30" font-weight="600" fill="#1d4ed8" opacity="0.75">冰心菜</text>
</svg>