<svg width="512" height="512" viewBox="0 0 512 512" xmlns="http://www.w3.org/2000/svg">
<defs><radialGradient id="bg" cx="50%" cy="42%" r="78%"><stop offset="0%" stop-color="#f0fdf4"/><stop offset="100%" stop-color="#dcfce7"/></radialGradient><linearGradient id="pl" x1="0" y1="1" x2="0" y2="0"><stop offset="0%" stop-color="#15803d"/><stop offset="60%" stop-color="#22c55e"/><stop offset="100%" stop-color="#4ade80"/></linearGradient><linearGradient id="pd" x1="0" y1="1" x2="0" y2="0"><stop offset="0%" stop-color="#15803d"/><stop offset="100%" stop-color="#22c55e"/></linearGradient><radialGradient id="glow" cx="50%" cy="50%" r="50%"><stop offset="0%" stop-color="#4ade80" stop-opacity="0.55"/><stop offset="100%" stop-color="#4ade80" stop-opacity="0"/></radialGradient></defs><rect width="512" height="512" rx="72" fill="url(#bg)"/><ellipse cx="256" cy="440" rx="150" ry="20" fill="#000" opacity="0.06"/><g stroke="#65a30d" stroke-width="7" fill="none" stroke-linecap="round"><path d="M220 440 L220 150"/></g><g transform="translate(196,440) rotate(-16)"><path d="M0 0 C -9 -107.0 -4.5 -214 0 -214 C 4.5 -214 9 -107.0 0 0 Z" fill="url(#pl)"/></g><g transform="translate(216,440) rotate(-8)"><path d="M0 0 C -9 -116.0 -4.5 -232 0 -232 C 4.5 -232 9 -116.0 0 0 Z" fill="url(#pl)"/></g><g transform="translate(236,440) rotate(0)"><path d="M0 0 C -9 -125.0 -4.5 -250 0 -250 C 4.5 -250 9 -125.0 0 0 Z" fill="url(#pl)"/></g><g transform="translate(256,440) rotate(8)"><path d="M0 0 C -9 -116.0 -4.5 -232 0 -232 C 4.5 -232 9 -116.0 0 0 Z" fill="url(#pl)"/></g><g transform="translate(276,440) rotate(16)"><path d="M0 0 C -9 -107.0 -4.5 -214 0 -214 C 4.5 -214 9 -107.0 0 0 Z" fill="url(#pl)"/></g><circle cx="220" cy="128" r="30" fill="#fff" opacity="0.14"/><g fill="#f0fdf4" stroke="#bbf7d0" stroke-width="1.2"><circle cx="220" cy="112" r="8"/><circle cx="205" cy="123" r="8"/><circle cx="235" cy="123" r="8"/><circle cx="211" cy="139" r="8"/><circle cx="229" cy="139" r="8"/><circle cx="220" cy="130" r="8"/></g>
<text x="256" y="492" text-anchor="middle" font-family="Microsoft YaHei UI, sans-serif" font-size="30" font-weight="600" fill="#15803d" opacity="0.75">春韭</text>
</svg>