<svg width="512" height="512" viewBox="0 0 512 512" xmlns="http://www.w3.org/2000/svg">
<defs><radialGradient id="bg" cx="50%" cy="42%" r="78%"><stop offset="0%" stop-color="#f5f3ff"/><stop offset="100%" stop-color="#ede9fe"/></radialGradient><linearGradient id="pl" x1="0" y1="1" x2="0" y2="0"><stop offset="0%" stop-color="#6d28d9"/><stop offset="60%" stop-color="#8b5cf6"/><stop offset="100%" stop-color="#c4b5fd"/></linearGradient><linearGradient id="pd" x1="0" y1="1" x2="0" y2="0"><stop offset="0%" stop-color="#6d28d9"/><stop offset="100%" stop-color="#8b5cf6"/></linearGradient><radialGradient id="glow" cx="50%" cy="50%" r="50%"><stop offset="0%" stop-color="#c4b5fd" stop-opacity="0.55"/><stop offset="100%" stop-color="#c4b5fd" stop-opacity="0"/></radialGradient></defs><rect width="512" height="512" rx="72" fill="url(#bg)"/><ellipse cx="256" cy="440" rx="150" ry="20" fill="#000" opacity="0.06"/><path d="M256 250 C180 250 160 360 210 410 C250 448 320 438 344 388 C368 336 330 250 256 250 Z" fill="url(#pd)"/><path d="M256 250 C240 232 244 210 256 206 C268 210 272 232 256 250 Z" fill="#16a34a"/><g stroke="#6d28d9" stroke-width="4" opacity="0.5" fill="none"><path d="M210 320 C250 340 280 360 300 400"/></g>
<text x="256" y="492" text-anchor="middle" font-family="Microsoft YaHei UI, sans-serif" font-size="30" font-weight="600" fill="#6d28d9" opacity="0.75">紫霞茄</text>
</svg>